<?xml version="1.0" encoding="UTF-8"?>
<svg version="1.1" xmlns="http://www.w3.org/2000/svg" width="256" height="256">
<path d="M0 0 C-0.57352292 3.58933469 -1.83702852 5.15753929 -4.46484375 7.6171875 C-5.17809814 8.29974609 -5.89135254 8.98230469 -6.6262207 9.68554688 C-7.38894287 10.40806641 -8.15166504 11.13058594 -8.9375 11.875 C-20.63924139 23.26986258 -29.89710658 34.93033411 -34 51 C-32.329375 50.7525 -32.329375 50.7525 -30.625 50.5 C-15.66690525 48.74484703 -3.03751188 52.22192805 8.9609375 61.51953125 C16.26081751 68.07029693 21.33941421 78.6812691 22.21899414 88.42626953 C22.33926516 91.14153208 22.37117478 93.84468027 22.375 96.5625 C22.39949219 97.48224609 22.42398438 98.40199219 22.44921875 99.34960938 C22.47392406 105.07712479 21.91456575 108.50892548 18 113 C15.25 114.875 15.25 114.875 13 116 C8.50215073 112.97260145 5.30821481 110.35484029 2 106 C1.77828125 107.17949219 1.5565625 108.35898438 1.328125 109.57421875 C-4.45666889 137.86114672 -17.74392235 167.78212969 -35 191 C-35.38945801 191.53318848 -35.77891602 192.06637695 -36.18017578 192.61572266 C-48.30992156 209.12213242 -63.04237283 225.34745761 -83 232 C-90.38196311 232.65659138 -97.2316196 233.20689775 -103.3359375 228.53125 C-104.15964844 227.77328125 -104.15964844 227.77328125 -105 227 C-105.79277344 226.27296875 -105.79277344 226.27296875 -106.6015625 225.53125 C-119.42148093 212.11964303 -122.1264293 190.94926812 -122.203125 173.22265625 C-122.20882507 172.1796788 -122.21452515 171.13670135 -122.22039795 170.06211853 C-122.22982437 167.85074873 -122.23637253 165.63936503 -122.24023438 163.42797852 C-122.24979818 160.13205313 -122.28078364 156.8367911 -122.3125 153.54101562 C-122.46259351 123.5512909 -120.11244958 89.39487657 -99 66 C-98.01 65.01 -98.01 65.01 -97 64 C-98.15757813 64.2165625 -99.31515625 64.433125 -100.5078125 64.65625 C-102.04682443 64.93777657 -103.5858898 65.21901113 -105.125 65.5 C-105.88554688 65.64308594 -106.64609375 65.78617187 -107.4296875 65.93359375 C-111.65171031 66.69792547 -115.69298598 67.36655438 -120 67 C-122 65 -122 65 -122.4375 61.5 C-122.11551837 51.57223307 -114.68054029 42.74249275 -108 36 C-104.50791729 33.272897 -100.91577629 31.06371994 -97 29 C-96.36835937 28.64035156 -95.73671875 28.28070313 -95.0859375 27.91015625 C-86.56972692 23.83963269 -74.86169061 25.15668245 -66.0625 27.625 C-55.42176543 31.386743 -48.21883159 37.67175262 -42 47 C-41.72027344 46.34515625 -41.44054687 45.6903125 -41.15234375 45.015625 C-35.21070227 31.48931577 -17.8212895 -0.96331295 0 0 Z " fill="#FD7C11" transform="translate(178,12)"/>
<path d="M0 0 C-0.57352292 3.58933469 -1.83702852 5.15753929 -4.46484375 7.6171875 C-5.17809814 8.29974609 -5.89135254 8.98230469 -6.6262207 9.68554688 C-7.38894287 10.40806641 -8.15166504 11.13058594 -8.9375 11.875 C-20.63924139 23.26986258 -29.89710658 34.93033411 -34 51 C-32.329375 50.7525 -32.329375 50.7525 -30.625 50.5 C-15.66690525 48.74484703 -3.03751188 52.22192805 8.9609375 61.51953125 C16.26081751 68.07029693 21.33941421 78.6812691 22.21899414 88.42626953 C22.33926516 91.14153208 22.37117478 93.84468027 22.375 96.5625 C22.39949219 97.48224609 22.42398438 98.40199219 22.44921875 99.34960938 C22.47392406 105.07712479 21.91456575 108.50892548 18 113 C15.25 114.875 15.25 114.875 13 116 C7.23896696 112.44532004 3.52457164 108.21127648 -0.6640625 102.921875 C-2.95199701 100.06004387 -5.31347683 97.29852934 -7.75 94.5625 C-8.44609375 93.78003906 -9.1421875 92.99757813 -9.859375 92.19140625 C-12.09667163 89.90103506 -14.46212893 87.94777168 -17 86 C-17.40089844 86.68964844 -17.80179687 87.37929687 -18.21484375 88.08984375 C-25.25192325 99.722567 -32.93911627 107.64637209 -46 112 C-52.96152379 113.00910161 -57.89988728 111.80292075 -63.73828125 107.8984375 C-69.85422561 102.7648469 -73.34082314 95.72980411 -75 88 C-75.34486166 83.13755695 -75.28467866 78.30889173 -75.1875 73.4375 C-75.17396484 72.14263672 -75.16042969 70.84777344 -75.14648438 69.51367188 C-75.1113737 66.34200786 -75.06219347 63.1712291 -75 60 C-83.93381072 60.89973212 -92.59451485 61.92103145 -101.28515625 64.26953125 C-113.75438596 67.6245614 -113.75438596 67.6245614 -120 67 C-122 65 -122 65 -122.4375 61.5 C-122.11551837 51.57223307 -114.68054029 42.74249275 -108 36 C-104.50791729 33.272897 -100.91577629 31.06371994 -97 29 C-96.36835937 28.64035156 -95.73671875 28.28070313 -95.0859375 27.91015625 C-86.56972692 23.83963269 -74.86169061 25.15668245 -66.0625 27.625 C-55.42176543 31.386743 -48.21883159 37.67175262 -42 47 C-41.72027344 46.34515625 -41.44054687 45.6903125 -41.15234375 45.015625 C-35.21070227 31.48931577 -17.8212895 -0.96331295 0 0 Z " fill="#639907" transform="translate(178,12)"/>
</svg>
